# xmcd
# Track frame offsets:
# 150
# 21245
# 41425
# 67942
# 84262
# 109605
# 132967
# 152202
# 174975
# 195712
# 222682
# 245710
# 263682
# 280055
#
# Disc length: 3991 seconds
# Revision: 0
# Processed by: cddbd v1.5.2PL0 Copyright (c) Steve Scherf et al.
# Submitted via: VisiTrax 2.10.2.252 - For more info visit www.synapsa.com
#
DISCID=c10f950e
DTITLE=Clas Yngström - Humanizer
DYEAR=1987
DGENRE=Bluesrock
TTITLE0=Tune meto your station
TTITLE1=Hard man
TTITLE2=Fallen Angel
TTITLE3=Back to the start
TTITLE4=Dreams
TTITLE5=Don´t move
TTITLE6=Big city
TTITLE7=Rodeo
TTITLE8=Burning
TTITLE9=Rolla rollin´man
TTITLE10=Don´t move
TTITLE11=Back to the start
TTITLE12=Big city
TTITLE13=Tune me to your station
EXTD=
EXTT0=
EXTT1=
EXTT2=
EXTT3=
EXTT4=
EXTT5=
EXTT6=
EXTT7=
EXTT8=
EXTT9=
EXTT10=
EXTT11=
EXTT12=
EXTT13=
PLAYORDER=
